<svg id="bluetooth-audio" xmlns="http://www.w3.org/2000/svg" width="13.718" height="15.242" viewBox="0 0 13.718 15.242">
  <path id="Path_9656" data-name="Path 9656" d="M34.036,7.621l1.753,1.753a4.471,4.471,0,0,0,.3-1.753,6.493,6.493,0,0,0-.3-1.753Zm4.039-4.039-.915.991a6.938,6.938,0,0,1,.762,3.048,6.938,6.938,0,0,1-.762,3.048l.915.915a7.347,7.347,0,0,0,1.143-4.039A7.1,7.1,0,0,0,38.075,3.582Zm-2.9.762L30.835,0h-.762V5.792L26.567,2.286,25.5,3.353l4.268,4.268L25.5,11.889l1.067,1.067L30.073,9.45v5.792h.762L35.179,10.9,31.9,7.621ZM31.6,2.9l1.448,1.448L31.6,5.792Zm1.448,8L31.6,12.346V9.45Z" transform="translate(-25.5)" fill="#fff"/>
</svg>
