<svg id="calendar" xmlns="http://www.w3.org/2000/svg" width="22.015" height="22.015" viewBox="0 0 22.015 22.015">
  <g id="Group_11650" data-name="Group 11650">
    <g id="Group_11649" data-name="Group 11649">
      <path id="Path_9638" data-name="Path 9638" d="M19.435,1.72H18.4V0h-1.72V1.72H5.332V0H3.612V1.72H2.58A2.583,2.583,0,0,0,0,4.3V19.435a2.583,2.583,0,0,0,2.58,2.58H19.435a2.583,2.583,0,0,0,2.58-2.58V4.3A2.583,2.583,0,0,0,19.435,1.72Zm.86,17.715a.861.861,0,0,1-.86.86H2.58a.861.861,0,0,1-.86-.86V8.084H20.3Zm0-13.071H1.72V4.3a.861.861,0,0,1,.86-.86H3.612V5.16h1.72V3.44H16.683V5.16H18.4V3.44h1.032a.861.861,0,0,1,.86.86Z" fill="#533c80"/>
    </g>
  </g>
  <g id="Group_11652" data-name="Group 11652" transform="translate(3.795 9.866)">
    <g id="Group_11651" data-name="Group 11651" transform="translate(0.205 0.142)">
      <rect id="Rectangle_852" data-name="Rectangle 852" width="2" height="2" fill="#533c80"/>
    </g>
  </g>
  <g id="Group_11680" data-name="Group 11680" transform="translate(3.795 12.866)">
    <g id="Group_11651-2" data-name="Group 11651" transform="translate(0.205 0.142)">
      <rect id="Rectangle_852-2" data-name="Rectangle 852" width="2" height="2" fill="#533c80"/>
    </g>
  </g>
  <g id="Group_11681" data-name="Group 11681" transform="translate(3.795 15.866)">
    <g id="Group_11651-3" data-name="Group 11651" transform="translate(0.205 0.142)">
      <rect id="Rectangle_852-3" data-name="Rectangle 852" width="2" height="2" fill="#533c80"/>
    </g>
  </g>
  <g id="Group_11679" data-name="Group 11679" transform="translate(7.795 9.866)">
    <g id="Group_11651-4" data-name="Group 11651" transform="translate(0.205 0.142)">
      <rect id="Rectangle_852-4" data-name="Rectangle 852" width="2" height="2" fill="#533c80"/>
    </g>
  </g>
  <g id="Group_11684" data-name="Group 11684" transform="translate(11.795 9.866)">
    <g id="Group_11651-5" data-name="Group 11651" transform="translate(0.205 0.142)">
      <rect id="Rectangle_852-5" data-name="Rectangle 852" width="2" height="2" fill="#533c80"/>
    </g>
  </g>
  <g id="Group_11687" data-name="Group 11687" transform="translate(15.795 9.866)">
    <g id="Group_11651-6" data-name="Group 11651" transform="translate(0.205 0.142)">
      <rect id="Rectangle_852-6" data-name="Rectangle 852" width="2" height="2" fill="#533c80"/>
    </g>
  </g>
  <g id="Group_11682" data-name="Group 11682" transform="translate(7.795 12.866)">
    <g id="Group_11651-7" data-name="Group 11651" transform="translate(0.205 0.142)">
      <rect id="Rectangle_852-7" data-name="Rectangle 852" width="2" height="2" fill="#533c80"/>
    </g>
  </g>
  <g id="Group_11685" data-name="Group 11685" transform="translate(11.795 12.866)">
    <g id="Group_11651-8" data-name="Group 11651" transform="translate(0.205 0.142)">
      <rect id="Rectangle_852-8" data-name="Rectangle 852" width="2" height="2" fill="#533c80"/>
    </g>
  </g>
  <g id="Group_11688" data-name="Group 11688" transform="translate(15.795 12.866)">
    <g id="Group_11651-9" data-name="Group 11651" transform="translate(0.205 0.142)">
      <rect id="Rectangle_852-9" data-name="Rectangle 852" width="2" height="2" fill="#533c80"/>
    </g>
  </g>
  <g id="Group_11683" data-name="Group 11683" transform="translate(7.795 15.866)">
    <g id="Group_11651-10" data-name="Group 11651" transform="translate(0.205 0.142)">
      <rect id="Rectangle_852-10" data-name="Rectangle 852" width="2" height="2" fill="#533c80"/>
    </g>
  </g>
  <g id="Group_11686" data-name="Group 11686" transform="translate(11.795 15.866)">
    <g id="Group_11651-11" data-name="Group 11651" transform="translate(0.205 0.142)">
      <rect id="Rectangle_852-11" data-name="Rectangle 852" width="2" height="2" fill="#533c80"/>
    </g>
  </g>
  <g id="Group_11689" data-name="Group 11689" transform="translate(15.795 15.866)">
    <g id="Group_11651-12" data-name="Group 11651" transform="translate(0.205 0.142)">
      <rect id="Rectangle_852-12" data-name="Rectangle 852" width="2" height="2" fill="#533c80"/>
    </g>
  </g>
</svg>
