<svg id="cast" xmlns="http://www.w3.org/2000/svg" width="18.629" height="15.242" viewBox="0 0 18.629 15.242">
  <path id="Path_9655" data-name="Path 9655" d="M16.936,51H1.694A1.7,1.7,0,0,0,0,52.694v2.54H1.694v-2.54H16.936V64.549H11.008v1.694h5.928a1.7,1.7,0,0,0,1.694-1.694V52.694A1.7,1.7,0,0,0,16.936,51ZM0,63.7v2.54H2.54A2.5,2.5,0,0,0,0,63.7Zm0-3.387v1.694a4.193,4.193,0,0,1,4.234,4.234H5.928A5.891,5.891,0,0,0,0,60.315Zm0-3.387v1.694a7.589,7.589,0,0,1,7.621,7.621H9.315A9.288,9.288,0,0,0,0,56.928Z" transform="translate(0 -51)" fill="#fff"/>
</svg>
