<svg xmlns="http://www.w3.org/2000/svg" width="22.013" height="22.015" viewBox="0 0 22.013 22.015">
  <path id="home" d="M21.922,9.575l0,0L12.94.593a2.026,2.026,0,0,0-2.866,0L1.1,9.569l-.009.009a2.026,2.026,0,0,0,1.349,3.453c.021,0,.042,0,.063,0h.358v6.609A2.375,2.375,0,0,0,5.23,22.015H8.743a.645.645,0,0,0,.645-.645V16.188a1.083,1.083,0,0,1,1.082-1.082h2.072a1.083,1.083,0,0,1,1.082,1.082V21.37a.645.645,0,0,0,.645.645h3.513a2.375,2.375,0,0,0,2.372-2.372V13.034h.332a2.027,2.027,0,0,0,1.434-3.459Zm-.913,1.953a.732.732,0,0,1-.521.216H19.51a.645.645,0,0,0-.645.645v7.254a1.083,1.083,0,0,1-1.082,1.082H14.915V16.188a2.375,2.375,0,0,0-2.372-2.372H10.47A2.375,2.375,0,0,0,8.1,16.188v4.536H5.23a1.083,1.083,0,0,1-1.082-1.082V12.389a.645.645,0,0,0-.645-.645h-.99A.736.736,0,0,1,2,10.486h0l8.98-8.98a.736.736,0,0,1,1.042,0l8.978,8.978,0,0a.738.738,0,0,1,0,1.041Zm0,0" transform="translate(-0.5 0.001)" fill="#f22176"/>
</svg>
