<svg xmlns="http://www.w3.org/2000/svg" width="17.84" height="21.663" viewBox="0 0 17.84 21.663">
  <g id="music-book_1_" data-name="music-book (1)" transform="translate(-45)">
    <path id="Path_9641" data-name="Path 9641" d="M48.186,0A3.189,3.189,0,0,0,45,3.186V19.114a2.551,2.551,0,0,0,2.549,2.549H62.84V20.389H61.566V17.84H62.84V0Zm-.637,16.566a2.532,2.532,0,0,0-1.274.343V8.92h1.911v7.646Zm.637-8.92H46.274V6.371h1.911Zm0-6.371V5.1H46.274V3.186A1.914,1.914,0,0,1,48.186,1.274ZM60.292,20.389H47.549a1.274,1.274,0,0,1,0-2.549H60.292ZM49.46,16.566V1.274H61.566V16.566Z" transform="translate(0)" fill="#533c80"/>
    <path id="Path_9642" data-name="Path 9642" d="M182.544,72.858v6.355a1.911,1.911,0,1,0,1.274,1.8V76.429l4.46-.991v2.5a1.911,1.911,0,1,0,1.274,1.8V71.3Zm-.637,8.794a.637.637,0,1,1,.637-.637A.638.638,0,0,1,181.907,81.652Zm5.734-1.274a.637.637,0,1,1,.637-.637A.638.638,0,0,1,187.641,80.378Zm-3.823-6.5,4.46-.991v1.243l-4.46.991Z" transform="translate(-129.261 -68.272)" fill="#533c80"/>
  </g>
</svg>
