<svg xmlns="http://www.w3.org/2000/svg" width="16.892" height="15.242" viewBox="0 0 16.892 15.242">
  <g id="monitor" transform="translate(0 -25)">
    <path id="Path_9643" data-name="Path 9643" d="M15.9,25H.99a.991.991,0,0,0-.99.99v9.832a.991.991,0,0,0,.99.99H5.84v2.441H3.167a.495.495,0,1,0,0,.99H13.725a.495.495,0,1,0,0-.99H11.052V36.811H15.9a.991.991,0,0,0,.99-.99V25.99A.991.991,0,0,0,15.9,25Zm-5.84,14.252H6.829V36.811h3.233Zm5.84-3.431H.99V25.99H15.9C15.9,36.035,15.905,35.821,15.9,35.821Z" transform="translate(0 0)" fill="#fff"/>
  </g>
</svg>
