<svg xmlns="http://www.w3.org/2000/svg" width="4.759" height="4.759" viewBox="0 0 4.759 4.759">
  <g id="Union" transform="translate(0 2.379) rotate(-45)" fill="#f32277">
    <path d="M 2.804399967193604 2.865100145339966 L 0.5607000589370728 2.865100145339966 C 0.5272300839424133 2.865100145339966 0.5000000596046448 2.837870121002197 0.5000000596046448 2.804399967193604 C 0.5000000596046448 2.770930051803589 0.5272300839424133 2.74370002746582 0.5607000589370728 2.74370002746582 L 2.24370002746582 2.74370002746582 L 2.74370002746582 2.74370002746582 L 2.74370002746582 2.24370002746582 L 2.74370002746582 0.5607000589370728 C 2.74370002746582 0.5272300839424133 2.770930051803589 0.5000000596046448 2.804399967193604 0.5000000596046448 C 2.837870121002197 0.5000000596046448 2.865100145339966 0.5272300839424133 2.865100145339966 0.5607000589370728 L 2.865100145339966 2.804399967193604 C 2.865100145339966 2.837870121002197 2.837870121002197 2.865100145339966 2.804399967193604 2.865100145339966 Z" stroke="none"/>
    <path d="M 2.804399967193604 3.365100145339966 L 0.5607000589370728 3.365100145339966 C 0.2511000633239746 3.365100145339966 7.266998380828227e-08 3.114000082015991 7.266998380828227e-08 2.804399967193604 C 7.266998380828227e-08 2.494800090789795 0.2511000633239746 2.24370002746582 0.5607000589370728 2.24370002746582 L 2.24370002746582 2.24370002746582 L 2.24370002746582 0.5607000589370728 C 2.24370002746582 0.2511000633239746 2.494800090789795 7.266998380828227e-08 2.804399967193604 7.266998380828227e-08 C 3.114000082015991 7.266998380828227e-08 3.365100145339966 0.2511000633239746 3.365100145339966 0.5607000589370728 L 3.365100145339966 2.804399967193604 C 3.365100145339966 3.114000082015991 3.114000082015991 3.365100145339966 2.804399967193604 3.365100145339966 Z" stroke="none" fill="#fff"/>
  </g>
</svg>
