<svg xmlns="http://www.w3.org/2000/svg" width="18.367" height="22.015" viewBox="0 0 18.367 22.015">
  <g id="user_1_" data-name="user (1)" transform="translate(0 0)">
    <path id="Path_9636" data-name="Path 9636" d="M92.334,10.6a5.131,5.131,0,0,0,3.749-1.553A5.131,5.131,0,0,0,97.637,5.3a5.131,5.131,0,0,0-1.553-3.749,5.3,5.3,0,0,0-7.5,0A5.131,5.131,0,0,0,87.032,5.3a5.131,5.131,0,0,0,1.553,3.749A5.132,5.132,0,0,0,92.334,10.6ZM89.5,2.466a4.011,4.011,0,0,1,5.674,0A3.833,3.833,0,0,1,96.347,5.3a3.833,3.833,0,0,1-1.176,2.837,4.011,4.011,0,0,1-5.674,0A3.833,3.833,0,0,1,88.322,5.3,3.833,3.833,0,0,1,89.5,2.466Zm0,0" transform="translate(-83.29)" fill="#533c80"/>
    <path id="Path_9637" data-name="Path 9637" d="M18.323,253.611a13.1,13.1,0,0,0-.178-1.391,10.961,10.961,0,0,0-.342-1.4,6.909,6.909,0,0,0-.575-1.3,4.917,4.917,0,0,0-.867-1.13,3.823,3.823,0,0,0-1.245-.783,4.3,4.3,0,0,0-1.59-.288,1.614,1.614,0,0,0-.862.365c-.258.168-.56.363-.9.579a5.145,5.145,0,0,1-1.162.512,4.511,4.511,0,0,1-2.842,0,5.13,5.13,0,0,1-1.161-.512c-.334-.213-.636-.408-.9-.579a1.612,1.612,0,0,0-.861-.365,4.3,4.3,0,0,0-1.59.288,3.82,3.82,0,0,0-1.246.783,4.918,4.918,0,0,0-.867,1.13,6.922,6.922,0,0,0-.575,1.3,10.986,10.986,0,0,0-.342,1.4,13.008,13.008,0,0,0-.178,1.392c-.029.42-.044.858-.044,1.3a3.656,3.656,0,0,0,1.086,2.766,3.908,3.908,0,0,0,2.8,1.02h10.6a3.908,3.908,0,0,0,2.8-1.02,3.654,3.654,0,0,0,1.086-2.766c0-.444-.015-.881-.045-1.3Zm-1.931,3.131a2.631,2.631,0,0,1-1.908.665H3.883a2.631,2.631,0,0,1-1.908-.665,2.387,2.387,0,0,1-.685-1.831c0-.412.014-.82.041-1.211a11.733,11.733,0,0,1,.161-1.253,9.69,9.69,0,0,1,.3-1.233,5.635,5.635,0,0,1,.468-1.061,3.645,3.645,0,0,1,.637-.835,2.536,2.536,0,0,1,.829-.515,2.969,2.969,0,0,1,1.016-.2c.045.024.126.07.256.155.265.173.571.37.909.586A6.392,6.392,0,0,0,7.365,250,5.8,5.8,0,0,0,11,250a6.4,6.4,0,0,0,1.459-.652c.346-.221.643-.413.908-.586.13-.085.211-.131.256-.155a2.971,2.971,0,0,1,1.016.2,2.539,2.539,0,0,1,.828.515,3.636,3.636,0,0,1,.637.835,5.616,5.616,0,0,1,.468,1.06,9.667,9.667,0,0,1,.3,1.233,11.831,11.831,0,0,1,.161,1.253h0c.027.39.041.8.041,1.21a2.387,2.387,0,0,1-.685,1.831Zm0,0" transform="translate(0 -236.682)" fill="#533c80"/>
  </g>
</svg>
