<svg xmlns="http://www.w3.org/2000/svg" width="17.735" height="17.735" viewBox="0 0 17.735 17.735">
  <g id="settings" transform="translate(0 0)">
    <path id="Path_9658" data-name="Path 9658" d="M9.424,17.735H8.311A1.635,1.635,0,0,1,6.678,16.1v-.377a7.16,7.16,0,0,1-1.112-.461l-.267.267a1.633,1.633,0,0,1-2.309,0L2.2,14.744a1.633,1.633,0,0,1,0-2.309l.267-.267a7.16,7.16,0,0,1-.461-1.112H1.633A1.634,1.634,0,0,1,0,9.424V8.311A1.635,1.635,0,0,1,1.633,6.678h.377a7.162,7.162,0,0,1,.461-1.112L2.2,5.3a1.633,1.633,0,0,1,0-2.309L2.991,2.2A1.632,1.632,0,0,1,5.3,2.2l.267.267a7.166,7.166,0,0,1,1.112-.461V1.633A1.634,1.634,0,0,1,8.311,0H9.424a1.634,1.634,0,0,1,1.633,1.633v.377a7.16,7.16,0,0,1,1.112.461l.267-.267a1.633,1.633,0,0,1,2.309,0l.787.787a1.633,1.633,0,0,1,0,2.309l-.267.267a7.16,7.16,0,0,1,.461,1.112H16.1a1.635,1.635,0,0,1,1.633,1.633V9.424A1.635,1.635,0,0,1,16.1,11.057h-.377a7.161,7.161,0,0,1-.461,1.112l.267.267a1.633,1.633,0,0,1,0,2.309l-.787.787a1.632,1.632,0,0,1-2.309,0l-.267-.267a7.167,7.167,0,0,1-1.112.461V16.1A1.634,1.634,0,0,1,9.424,17.735ZM5.74,14.173a6.125,6.125,0,0,0,1.588.659.52.52,0,0,1,.39.5V16.1a.594.594,0,0,0,.593.593H9.424a.594.594,0,0,0,.593-.593v-.767a.52.52,0,0,1,.39-.5,6.125,6.125,0,0,0,1.588-.659.52.52,0,0,1,.632.08l.543.543a.593.593,0,0,0,.839,0l.787-.787a.593.593,0,0,0,0-.839l-.544-.544a.52.52,0,0,1-.08-.632,6.123,6.123,0,0,0,.659-1.588.52.52,0,0,1,.5-.39H16.1a.594.594,0,0,0,.593-.593V8.311a.594.594,0,0,0-.593-.593h-.767a.52.52,0,0,1-.5-.39,6.125,6.125,0,0,0-.659-1.588.52.52,0,0,1,.08-.632l.543-.543a.593.593,0,0,0,0-.839l-.787-.787a.593.593,0,0,0-.839,0l-.544.544a.52.52,0,0,1-.632.08A6.124,6.124,0,0,0,10.407,2.9a.52.52,0,0,1-.39-.5V1.633a.594.594,0,0,0-.593-.593H8.311a.594.594,0,0,0-.593.593V2.4a.52.52,0,0,1-.39.5,6.124,6.124,0,0,0-1.588.659.52.52,0,0,1-.632-.08l-.543-.543a.593.593,0,0,0-.839,0l-.787.787a.593.593,0,0,0,0,.839l.544.544a.52.52,0,0,1,.08.632A6.123,6.123,0,0,0,2.9,7.328a.52.52,0,0,1-.5.39H1.633a.594.594,0,0,0-.593.593V9.424a.594.594,0,0,0,.593.593H2.4a.52.52,0,0,1,.5.39,6.125,6.125,0,0,0,.659,1.588.52.52,0,0,1-.08.632l-.543.543a.593.593,0,0,0,0,.839l.787.787a.593.593,0,0,0,.839,0l.544-.544A.522.522,0,0,1,5.74,14.173Z" transform="translate(0 0)" fill="#f32277"/>
    <path id="Path_9659" data-name="Path 9659" d="M148.459,152.317a3.859,3.859,0,1,1,3.859-3.859A3.863,3.863,0,0,1,148.459,152.317Zm0-6.678a2.82,2.82,0,1,0,2.82,2.82A2.823,2.823,0,0,0,148.459,145.639Z" transform="translate(-139.591 -139.591)" fill="#f32277"/>
  </g>
</svg>
