<svg xmlns="http://www.w3.org/2000/svg" width="15.237" height="15.242" viewBox="0 0 15.237 15.242">
  <g id="speaker" transform="translate(-0.082 0)">
    <path id="Path_9649" data-name="Path 9649" d="M370.488,54.72a.446.446,0,1,0,0,.893,1.266,1.266,0,0,1,1.264,1.264.446.446,0,1,0,.893,0A2.16,2.16,0,0,0,370.488,54.72Z" transform="translate(-358.95 -53.092)" fill="#fff"/>
    <path id="Path_9650" data-name="Path 9650" d="M370.488.163a.446.446,0,1,0,0,.893,2.891,2.891,0,0,1,2.888,2.888.446.446,0,0,0,.893,0A3.785,3.785,0,0,0,370.488.163Z" transform="translate(-358.95 -0.158)" fill="#fff"/>
    <circle id="Ellipse_1396" data-name="Ellipse 1396" cx="0.446" cy="0.446" r="0.446" transform="translate(11.092 3.339)" fill="#fff"/>
    <path id="Path_9651" data-name="Path 9651" d="M9.513,0H.528A.446.446,0,0,0,.082.446V14.8a.446.446,0,0,0,.446.446H9.513A.446.446,0,0,0,9.96,14.8V.446A.446.446,0,0,0,9.513,0ZM9.067,14.349H.975V.893H9.067V14.349Z" fill="#fff"/>
    <path id="Path_9652" data-name="Path 9652" d="M60.038,237.6a3.251,3.251,0,1,0-3.251-3.251A3.255,3.255,0,0,0,60.038,237.6Zm0-5.61a2.358,2.358,0,1,1-2.358,2.358A2.361,2.361,0,0,1,60.038,231.989Z" transform="translate(-55.017 -224.219)" fill="#fff"/>
    <path id="Path_9653" data-name="Path 9653" d="M115.015,289.635a1.565,1.565,0,1,0-1.565-1.565A1.567,1.567,0,0,0,115.015,289.635Zm0-2.237a.672.672,0,1,1-.672.672A.673.673,0,0,1,115.015,287.4Z" transform="translate(-109.994 -277.979)" fill="#fff"/>
    <path id="Path_9654" data-name="Path 9654" d="M98.165,66.739a2.082,2.082,0,1,0-2.082-2.082A2.084,2.084,0,0,0,98.165,66.739Zm0-3.271a1.189,1.189,0,1,1-1.189,1.189A1.19,1.19,0,0,1,98.165,63.468Z" transform="translate(-93.144 -60.713)" fill="#fff"/>
    <circle id="Ellipse_1397" data-name="Ellipse 1397" cx="0.446" cy="0.446" r="0.446" transform="translate(4.574 3.498)" fill="#fff"/>
  </g>
</svg>
