<svg xmlns="http://www.w3.org/2000/svg" width="15.351" height="15.242" viewBox="0 0 15.351 15.242">
  <g id="tv" transform="translate(0 -1.806)">
    <path id="Path_9644" data-name="Path 9644" d="M13.44,4.406H7.993l2.234-1.915-.588-.686L6.747,4.285,3.874,2.233l-.525.735L5.364,4.406H1.911A1.914,1.914,0,0,0,0,6.318v8.819a1.914,1.914,0,0,0,1.911,1.911H13.44a1.914,1.914,0,0,0,1.911-1.911V6.318A1.914,1.914,0,0,0,13.44,4.406Zm1.008,10.731a1.009,1.009,0,0,1-1.008,1.008H1.911A1.009,1.009,0,0,1,.9,15.137V6.318A1.009,1.009,0,0,1,1.911,5.309H13.44a1.009,1.009,0,0,1,1.008,1.008Z" fill="#fff"/>
    <path id="Path_9645" data-name="Path 9645" d="M67.691,148.194H62.242A2.245,2.245,0,0,0,60,150.436v4.545a2.245,2.245,0,0,0,2.242,2.242h5.448a2.245,2.245,0,0,0,2.242-2.242v-4.545A2.245,2.245,0,0,0,67.691,148.194Zm1.339,6.788a1.341,1.341,0,0,1-1.339,1.339H62.242a1.341,1.341,0,0,1-1.339-1.339v-4.545a1.341,1.341,0,0,1,1.339-1.339h5.448a1.341,1.341,0,0,1,1.339,1.339Z" transform="translate(-58.194 -141.982)" fill="#fff"/>
    <path id="Path_9646" data-name="Path 9646" d="M420,223.194h.9v.9H420Z" transform="translate(-407.358 -214.724)" fill="#fff"/>
    <path id="Path_9647" data-name="Path 9647" d="M420,283.194h.9v.9H420Z" transform="translate(-407.358 -272.918)" fill="#fff"/>
    <path id="Path_9648" data-name="Path 9648" d="M420,343.194h.9v.9H420Z" transform="translate(-407.358 -331.112)" fill="#fff"/>
  </g>
</svg>
